<svg xmlns="http://www.w3.org/2000/svg" width="151.471" height="160.305" viewBox="0 0 151.471 160.305">
  <g id="folder" transform="translate(0.005 -8)">
    <path id="Path_83920" data-name="Path 83920" d="M143.466,48.074V38.055c0-3.952-2.676-7.156-5.978-7.156H58.582a5.424,5.424,0,0,1-4.256-2.061A7.819,7.819,0,0,1,52.6,23.743V15.156C52.6,11.2,49.928,8,46.627,8H6.17C2.768,8.107.045,11.412,0,15.485V159.063a9.949,9.949,0,0,0,1.979,6.406,6.952,6.952,0,0,0,5.194,2.825H143.466" transform="translate(0)" fill="#ffcc80"/>
    <path id="Path_83921" data-name="Path 83921" d="M6,120a7.53,7.53,0,0,0,5.186-1.65A5.2,5.2,0,0,0,13.154,114l.465-62.93V42a4.684,4.684,0,0,1,1.872-3.5,6.652,6.652,0,0,1,4.281-1.358H145.313a6.652,6.652,0,0,1,4.281,1.358,4.684,4.684,0,0,1,1.872,3.5v72c-.26,3.219-3.316,5.782-7.154,6H6" transform="translate(0 48.295)" fill="#ffecb3"/>
  </g>
</svg>


