<svg xmlns="http://www.w3.org/2000/svg" width="475" height="146.569" viewBox="0 0 475 146.569">
  <g id="logo" transform="translate(-3 151.789)">
    <path id="Path_83922" data-name="Path 83922" d="M86-149.3c-1.2,3.3-6.4,7.3-9.4,7.3-2.8,0-1.7,1.4,3.2,4,3.1,1.7,5.2,3.6,6.3,5.9,1.6,3.5,1.6,3.5,2.4,1,1-3.4,4.4-6.8,8.5-8.6l3.5-1.5-3.4-1.2c-3.2-1.1-6.1-3.9-8.8-8.2C87.3-152.4,87.1-152.3,86-149.3Z" fill="#000591"/>
    <path id="Path_83923" data-name="Path 83923" d="M27.7-137.6c-4,8.5-9.3,13.3-18.8,16.7-3.3,1.2-5.9,2.4-5.9,2.8,0,.3,3.2,1.9,7,3.4,9.5,3.8,15.7,10,18.9,18.7,2.3,6,2.5,6.3,3.4,4,5.6-14.4,10.2-19.6,20.7-23.4,3.1-1.2,5.9-2.5,6.1-3,.2-.4-2.7-2-6.6-3.4-8.9-3.3-14.3-8.6-17.6-17-1.3-3.4-2.7-6.2-3.1-6.2S29.5-141.7,27.7-137.6Z" fill="#000591"/>
    <path id="Path_83924" data-name="Path 83924" d="M307-136.3c-9.1,4.7-9.1,19.1-.1,23.8,5.8,3,15.6-1.6,17.6-8.3.5-1.7.2-2.2-1.3-2.2a38.3,38.3,0,0,1-5.1-.6c-2.4-.5-3.1-.3-3.1,1a1.694,1.694,0,0,0,1.8,1.6,7.093,7.093,0,0,1,3.7,1.4c1.8,1.3,1.7,1.5-1.5,3.5-4.1,2.5-7,2.6-11,.6a10.31,10.31,0,0,1-6-9.8,9.669,9.669,0,0,1,9.5-9.7c3.6,0,9.5,2.6,9.5,4.2,0,.4.7.8,1.5.8,1.3,0,1.4-.4.5-2C320.3-137.1,312.5-139.1,307-136.3Z" fill="#000591"/>
    <path id="Path_83925" data-name="Path 83925" d="M434.4-136.1c-3.4,1.5-4.5,2.8-5.9,6.5-2.9,7.6-.4,14.5,6.2,17.2,4.2,1.8,10.4.4,13.9-3.1,2.7-2.7,3.2-4.7.9-3.9-.8.4-1.5,1-1.5,1.5s-1.6,1.7-3.5,2.6a10.62,10.62,0,0,1-13.5-4c-5.9-9.6,3.8-19.5,14-14.2,1.7.9,3,2,3,2.5,0,.6.7,1,1.5,1,3.8,0-.5-5.6-5.3-7C439.4-138.3,439.2-138.3,434.4-136.1Z" fill="#000591"/>
    <path id="Path_83926" data-name="Path 83926" d="M166-124.5c0,7.7.4,12.5,1,12.5s1-4.8,1-12.5-.4-12.5-1-12.5S166-132.2,166-124.5Z" fill="#000591"/>
    <path id="Path_83927" data-name="Path 83927" d="M175-124.5c0,7.7.4,12.5,1,12.5s1-3.8,1-9.5c0-7.2.3-9.3,1.3-8.9.6.3,4.4,4.5,8.2,9.5,3.9,4.9,7.6,8.9,8.3,8.9.9,0,1.2-3.2,1.2-12.5,0-7.7-.4-12.5-1-12.5s-1,3.5-1,8.4c0,5.3-.4,8.7-1.1,9.2-1.2.7-1.7.2-10.1-10.9-2.8-3.7-5.7-6.7-6.4-6.7C175.3-137,175-134.4,175-124.5Z" fill="#000591"/>
    <path id="Path_83928" data-name="Path 83928" d="M202.5-135.4c-2,2.1-1.3,2.9,1.3,1.5a5.273,5.273,0,0,1,4.6-.1c2.6.9,2.6,1.1,2.6,11.5,0,6.3.4,10.5,1,10.5s1-4,1-10.1v-10.1l3.5.6c2.7.5,3.9.2,5.5-1.4,2.1-2.1,2.6-4,1.1-4-.5,0-1.1.7-1.5,1.5a2.737,2.737,0,0,1-2.4,1.5,19.086,19.086,0,0,1-5.5-1.5C209-137.5,204.5-137.4,202.5-135.4Z" fill="#000591"/>
    <path id="Path_83929" data-name="Path 83929" d="M229-124.5V-112h8.5c6.9,0,8.5-.3,8.5-1.5s-1.5-1.5-7.5-1.5H231v-4c0-3.8.2-4,3.3-4.2,1.7,0,3.8-.1,4.5-.1.6.1,1.2-.5,1.2-1.3s-1.5-1.4-4.2-1.6c-4.2-.3-4.3-.4-4.6-4.1l-.3-3.7h7c5.6,0,7.1-.3,7.1-1.5s-1.6-1.5-8-1.5h-8Z" fill="#000591"/>
    <path id="Path_83930" data-name="Path 83930" d="M252-124.5V-112h7.5c6,0,7.5-.3,7.5-1.5s-1.4-1.5-6.5-1.5H254v-11c0-6.7-.4-11-1-11S252-132.2,252-124.5Z" fill="#000591"/>
    <path id="Path_83931" data-name="Path 83931" d="M271.8-127.3c-.5,16.2-1,15.3,7.8,15.3,5.9,0,7.4-.3,7.4-1.5s-1.4-1.5-6.5-1.5H274v-11c0-6.1-.4-11-.9-11S272-132.6,271.8-127.3Z" fill="#000591"/>
    <path id="Path_83932" data-name="Path 83932" d="M292-124.5c0,7.7.4,12.5,1,12.5s1-4.8,1-12.5-.4-12.5-1-12.5S292-132.2,292-124.5Z" fill="#000591"/>
    <path id="Path_83933" data-name="Path 83933" d="M330-124.5V-112h8.5c6.8,0,8.5-.3,8.5-1.5,0-1.1-1.7-1.5-7.2-1.7l-7.3-.3-.3-3.8c-.3-3.7-.3-3.7,3.5-3.8a32.908,32.908,0,0,1,4.6,0c.4,0,.7-.7.7-1.7,0-1.5-.8-1.9-4.2-1.8-4.3.1-4.3.1-4.6-3.7l-.3-3.7h7c5.6,0,7.1-.3,7.1-1.5s-1.6-1.5-8-1.5h-8Z" fill="#000591"/>
    <path id="Path_83934" data-name="Path 83934" d="M353.4-124.5c-.1,6.9.3,12.5.7,12.5.5,0,.9-4.3.9-9.5,0-5.3.4-9.5.9-9.5.6,0,2.3,1.7,3.8,3.7,4.7,6.4,12.6,15.3,13.4,15.3.5,0,.9-5.6.9-12.5s-.4-12.5-.9-12.5-.9,3.5-.9,7.9c.1,12.7-.6,12.7-10.4-.1-3.2-4.3-6.4-7.8-7.1-7.8C353.8-137,353.5-133.5,353.4-124.5Z" fill="#000591"/>
    <path id="Path_83935" data-name="Path 83935" d="M380.5-135c-2,2.3-1.6,2.5,1.7.9a6.444,6.444,0,0,1,5.1,0L390-133v10.5c0,6.7.4,10.5,1.1,10.5.6,0,.9-3.4.8-9.8l-.2-9.7h3.6c3.7-.1,6.7-1.9,6.7-4.1,0-1.9-1-1.8-2.6.3-1.2,1.7-1.5,1.7-6.2,0C386.7-137.6,382.7-137.5,380.5-135Z" fill="#000591"/>
    <path id="Path_83936" data-name="Path 83936" d="M457-135.6a36.144,36.144,0,0,0,2.6,7c1.4,3.1,3.4,8,4.4,10.9,1,2.8,2.5,5.3,3.2,5.5,1.5.3,11.6-23.4,10.4-24.5-.3-.4-.8-.4-.9-.2-.8,1-6.7,16.5-6.7,17.6,0,.7-.2,1.3-.4,1.3a7.144,7.144,0,0,0-1.8.5c-1,.4-2.5-2.2-5.2-9.5C459.1-136,457-139.3,457-135.6Z" fill="#000591"/>
    <path id="Path_83937" data-name="Path 83937" d="M125.1-110.6c-2.9,6-3.7,6.7-9.1,9.3-3.2,1.5-5.9,3-5.9,3.3-.1.3,2.5,1.7,5.8,3.1,5.4,2.4,6,3.1,8.7,8.7,1.6,3.4,3.1,6.1,3.4,6.1.3.1,1.3-1.9,2.3-4.4,2.3-5.5,6.9-10.1,11.6-11.6,5.4-1.7,5.6-2.4.9-4.2-5.7-2.2-9.5-5.9-12.3-11.8l-2.2-4.9Z" fill="#000591"/>
    <path id="Path_83938" data-name="Path 83938" d="M166.7-102.3c-.4.3-.7,12.7-.7,27.5V-48h34v-6.9l-13.7-.3-13.8-.3-.3-23.8L172-103h-2.4C168.4-103,167-102.7,166.7-102.3Z" fill="#000591"/>
    <path id="Path_83939" data-name="Path 83939" d="M209-75.5V-48h6v-55h-6Z" fill="#000591"/>
    <path id="Path_83940" data-name="Path 83940" d="M235-102a36.313,36.313,0,0,1-7.7.3c-2.1-.5-2.3-.1-2.3,3,0,2.9.4,3.6,2.3,3.9l2.2.3.3,23.2L230-48h11.3c6.1,0,13.2-.5,15.6-1.1,8.8-2,13.2-7.3,13.3-16,0-5.9-1.9-9.2-6.9-12.1-2.9-1.8-3.3-2.3-2.1-3.2,2.3-1.7,3.8-5.2,3.8-9,0-8.6-5.1-12.6-16.8-13.1A77.874,77.874,0,0,0,235-102Zm20.1,7.6c3.2,1.6,4.9,4.7,4.1,7.7-.6,2.3-5.2,4.7-9.1,4.7-4.6,0-6.1,1-6.1,4,0,2.6.3,2.8,6.7,3.8,7.1,1.2,10.9,3.3,13.2,7.3,1.2,2.2,1.2,3-.3,6.2-2.3,4.7-6.4,6.1-18.1,6.2h-9L236.2-74c-.1-10.7,0-20,.2-20.7C237.2-96.6,251.3-96.4,255.1-94.4Z" fill="#000591"/>
    <path id="Path_83941" data-name="Path 83941" d="M283-95.3c0,7.5-.1,7.7-3.5,10.9-4.8,4.4-4.9,9.7-.3,14.5,3.3,3.6,3.5,4.2,3.7,15.1L283-48h6V-66h4.4c4.4,0,4.5.1,8,5.9,3.5,5.6,9.4,11.9,13.3,13.9a27.475,27.475,0,0,0,5.1,1.7c3.1.6,3.2.6,3.2-2.9,0-2.8-.4-3.6-1.9-3.6-4.4,0-18.6-16.7-15.1-17.8,3.3-1.1,9-7.7,10.1-11.5,3.7-13.9-6.1-22.7-25.3-22.7H283Zm18.4.4c5.3,1.5,9.6,5.9,9.6,9.8,0,3.5-5.7,10.1-8.7,10.1-1.2,0-2.9-1.5-4.4-3.7a20.724,20.724,0,0,0-5.6-5.8c-2.9-1.8-3.2-2.5-3.3-6.8V-96h4.3A35.953,35.953,0,0,1,301.4-94.9Zm-10.9,17c5,4.4,4.7,6.3-.7,5.4-5.3-.9-8.8-3-8.8-5.4C281-82.1,285.6-82.1,290.5-77.9Z" fill="#000591"/>
    <path id="Path_83942" data-name="Path 83942" d="M350-99.4c-.7,2-3.2,8.2-5.6,13.7S340-75.1,340-74.4c0,1.8-2.2,1.8-6.7-.1-1.9-.8-3.6-1.5-3.7-1.5a24.649,24.649,0,0,0,.2,4.1c.4,3.5.9,4.2,3.4,5.1s2.9,1.4,2.3,3.6a82.734,82.734,0,0,1-5.7,13.4c-.7,1.6-.4,1.8,2.6,1.8,3.4,0,3.5-.1,6.8-8.6,3.8-10,4.2-10.2,16.5-11.1,5.9-.4,8.7-.2,9.7.7,1.6,1.3,5.5,9.3,7.5,15.3,1.1,3.3,1.6,3.7,4.7,3.7H381l-1.7-4.3c-.9-2.3-5.9-14.6-10.9-27.2l-9.3-23-4-.3C351.4-103.1,351.1-102.9,350-99.4Zm8,11.3a16.787,16.787,0,0,0,1.9,4.9,40.662,40.662,0,0,1,2.5,5.9c.7,2.1.4,2.3-3.1,2.3a32.068,32.068,0,0,0-7.1.9c-6.2,1.8-6.4.8-2-10l4-9.9,1.9,2.4A8.1,8.1,0,0,1,358-88.1Z" fill="#000591"/>
    <path id="Path_83943" data-name="Path 83943" d="M390-95.3c0,7.8-.1,8-3.5,11-2.7,2.4-3.5,3.9-3.5,6.6,0,3.3,2.8,8.2,5.7,10,.9.6,1.3,3.6,1.3,10.2V-48h6V-65.8l4-.4c4.6-.4,5.2.1,9.4,7.4,4.1,7.1,11.3,13,17.4,14.3,3.1.6,3.2.6,3.2-2.8,0-2.9-.4-3.6-2.4-4.1-3.7-.9-8.5-5.4-12.3-11.4-1.9-3-3.3-5.5-3.1-5.6.1-.1,2-1.2,4-2.5,7.3-4.3,10.1-16.3,5.6-23.1-3.9-5.7-10.5-8.4-22-8.8l-9.8-.4Zm20.6,1.2c8.1,3.7,9.7,10,4,15.7-4.2,4.2-6.6,4.3-8.9.4a32.386,32.386,0,0,0-5.8-6.2c-3.5-2.8-3.9-3.6-3.9-7.5V-96h5.3A27.487,27.487,0,0,1,410.6-94.1ZM398-77.4c5.3,4.8,5.1,5.8-.7,4.9-5.9-.9-8-1.9-8.8-4.5C386.9-82.2,392.4-82.4,398-77.4Z" fill="#000591"/>
    <path id="Path_83944" data-name="Path 83944" d="M437-102.1c0,.5,2.3,5.8,5.1,11.8,2.8,5.9,6.6,14.1,8.5,18.1,3,6.4,3.4,8.1,3.4,15.7V-48h7V-65.8l8.5-17.7c4.7-9.8,8.5-18.1,8.5-18.6s-1.3-.9-2.8-.9c-3,0-4,1.8-12.8,22.2-1.6,3.7-3.6,6.8-4.4,7-1.1.2-3.4-3.9-8.2-14.2-6.3-13.8-6.8-14.5-9.7-14.8C438.4-103,437-102.7,437-102.1Z" fill="#000591"/>
    <path id="Path_83945" data-name="Path 83945" d="M70.6-86.4a11.4,11.4,0,0,0-.6,3c0,3-4.1,10.4-7.8,14-3.3,3.3-8.7,6.3-16.9,9.5l-2.8,1.1,2.5,1C61.7-51,66.8-46.2,70.4-33.7l1.1,3.9,3.3-8.1c3.7-9,9-14.6,16.4-17.4,2.4-.9,5.6-2.1,7.3-2.7,2.9-1.1,2.9-1.1-4.8-4.3-4.2-1.8-9.3-4.8-11.4-6.7C79-72.2,73-82.9,73-85.7,73-87.6,71.3-88.1,70.6-86.4Z" fill="#000591"/>
    <path id="Path_83946" data-name="Path 83946" d="M28.8-36.4c-2,4.2-3.4,5.4-8.6,8L14-25.3l4.4,1.7C23-21.8,30-15.1,30-12.5c0,2.4,1.7,1.7,2.4-.8,1-4.1,4.8-7.9,10-10.2l5-2.2-4.4-2c-5.1-2.3-7.2-4.4-9.9-9.8l-1.8-3.8Z" fill="#000591"/>
    <path id="Path_83947" data-name="Path 83947" d="M118.5-26.9c-1.1,3.5-5.4,7.7-8.6,8.4-3.7.8-3.7,1.9,0,3.5,3,1.2,7,5.1,8.9,8.5.9,1.6,1.1,1.7,1.2.3,0-2.5,5-7.9,8.8-9.5l3.4-1.4-4.3-2.2a14.816,14.816,0,0,1-6.5-6.1C119.3-29.1,119.2-29.2,118.5-26.9Z" fill="#000591"/>
  </g>
</svg>
