<svg xmlns="http://www.w3.org/2000/svg" width="319.401" height="122.082" viewBox="0 0 319.401 122.082">
  <path id="Renault_Group_logo" d="M16.672,33.444H28.61L38.966,49.661H54.049L41.331,31.49a20.207,20.207,0,0,0,4.708-2.507,14.3,14.3,0,0,0,6.137-12.221A14.347,14.347,0,0,0,46.039,4.424Q39.9,0,29.038,0H3.557V49.661H16.672Zm12.74-23.82a11.26,11.26,0,0,1,6.981,1.9,6.4,6.4,0,0,1,2.483,5.393,6.337,6.337,0,0,1-2.483,5.277,11.093,11.093,0,0,1-6.981,1.941H16.672V9.624Zm73.544,27H90.215a5.869,5.869,0,0,1-1.732,2.523A8.841,8.841,0,0,1,85.3,40.9a15.5,15.5,0,0,1-4.73.619,16.278,16.278,0,0,1-6.278-1.165,9.327,9.327,0,0,1-4.4-3.648,9.836,9.836,0,0,1-1.33-3.492h34.584a23.329,23.329,0,0,0,.188-3.1,18.69,18.69,0,0,0-3-10.67,19.719,19.719,0,0,0-8.243-6.9A28.312,28.312,0,0,0,80.006,10.09a29.286,29.286,0,0,0-12.459,2.523,20.48,20.48,0,0,0-8.524,7.061,18.357,18.357,0,0,0-3.091,10.593A17.962,17.962,0,0,0,59.119,40.86a20.987,20.987,0,0,0,8.758,7.061,30.47,30.47,0,0,0,12.693,2.523A30.827,30.827,0,0,0,91.3,48.7a21.234,21.234,0,0,0,7.821-4.85A13.512,13.512,0,0,0,102.956,36.627Zm-28.994-16.8a14.89,14.89,0,0,1,5.667-1.048,15.319,15.319,0,0,1,5.526.969,9.489,9.489,0,0,1,4.123,2.986,7.32,7.32,0,0,1,1.432,3.336H68.743a9.249,9.249,0,0,1,1.1-2.716A8.576,8.576,0,0,1,73.962,19.828Zm48.373,29.836H109.5v-38.8h9.087L121,14.853a16.579,16.579,0,0,1,4.619-2.979,22.71,22.71,0,0,1,9.276-1.784,25.231,25.231,0,0,1,10.164,1.941,16.752,16.752,0,0,1,7.073,5.586,14.5,14.5,0,0,1,2.624,8.692V49.666H141.919V27.94A8.228,8.228,0,0,0,140.7,23.4a7.814,7.814,0,0,0-3.42-2.91,12.143,12.143,0,0,0-5.1-1.009,10.881,10.881,0,0,0-7.166,2.211,7.658,7.658,0,0,0-2.669,6.246V49.663Zm86.68-38.8h-9.087l-2.41,4a19.465,19.465,0,0,0-3.35-2.248,23.065,23.065,0,0,0-11.008-2.523,26.032,26.032,0,0,0-11.43,2.523,21.789,21.789,0,0,0-8.476,7.061,17.8,17.8,0,0,0-3.232,10.593,17.8,17.8,0,0,0,3.232,10.593,21.789,21.789,0,0,0,8.476,7.061,26.032,26.032,0,0,0,11.43,2.523,23.034,23.034,0,0,0,11.008-2.523,19.473,19.473,0,0,0,3.35-2.248l2.41,4h9.087Zm-17.8,28.787a15.15,15.15,0,0,1-12.363,0,10.593,10.593,0,0,1-4.309-3.725,10.023,10.023,0,0,1-1.592-5.663,10.172,10.172,0,0,1,1.592-5.743,10.632,10.632,0,0,1,4.309-3.725,15.151,15.151,0,0,1,12.363,0,10.609,10.609,0,0,1,4.308,3.725,10.17,10.17,0,0,1,1.592,5.743,10.015,10.015,0,0,1-1.592,5.663A10.59,10.59,0,0,1,191.215,39.653Zm56.811-28.787h12.833V33.99a14.031,14.031,0,0,1-2.81,8.692,17.9,17.9,0,0,1-7.777,5.743,30.464,30.464,0,0,1-11.523,2.017q-9.929,0-16.02-4.385a14.059,14.059,0,0,1-6.089-12.065V10.868h12.833V32.827A7.4,7.4,0,0,0,232,38.919a12.162,12.162,0,0,0,13.536,0,7.452,7.452,0,0,0,2.483-6.092V10.866ZM268.172,0h12.833V49.661H268.172ZM62.059,77.693c.032.749.048,1.488.048,2.211A21.142,21.142,0,0,1,58.08,92.861,25.682,25.682,0,0,1,47.168,101.2a39.72,39.72,0,0,1-15.6,2.91,39.752,39.752,0,0,1-12.507-1.9A30.948,30.948,0,0,1,9.039,96.819a25.545,25.545,0,0,1-6.652-8.147A21.944,21.944,0,0,1,0,78.509,22.271,22.271,0,0,1,2.343,68.345,24.824,24.824,0,0,1,8.9,60.235a31.5,31.5,0,0,1,9.931-5.393A38.563,38.563,0,0,1,31.292,52.9a39.5,39.5,0,0,1,14.662,2.483A27.446,27.446,0,0,1,55.977,61.9a17.764,17.764,0,0,1,4.73,8.69H47.03a9.053,9.053,0,0,0-2.669-3.649,16.011,16.011,0,0,0-5.245-2.949,22.868,22.868,0,0,0-7.729-1.165,21.451,21.451,0,0,0-9.32,1.941A15.289,15.289,0,0,0,15.7,70.2a16.162,16.162,0,0,0,.048,16.682,15.273,15.273,0,0,0,6.511,5.51,22.266,22.266,0,0,0,9.509,1.941,26.481,26.481,0,0,0,8.665-1.281,12.648,12.648,0,0,0,5.808-3.841,9.944,9.944,0,0,0,2.071-4.5h-20.2V75.557H61.836A17.048,17.048,0,0,1,62.059,77.693Zm74.905-11.406a31.707,31.707,0,0,0-12.929-2.523,31.369,31.369,0,0,0-12.881,2.523,21.573,21.573,0,0,0-8.947,7.061,18.749,18.749,0,0,0,0,21.186,21.575,21.575,0,0,0,8.947,7.061,34.263,34.263,0,0,0,25.81,0,21.541,21.541,0,0,0,8.994-7.061,18.747,18.747,0,0,0,0-21.186A21.519,21.519,0,0,0,136.964,66.287ZM134.717,89.6a10.544,10.544,0,0,1-4.357,3.725,14.52,14.52,0,0,1-6.322,1.319,14.282,14.282,0,0,1-6.229-1.319,10.521,10.521,0,0,1-4.357-3.725,10.021,10.021,0,0,1-1.592-5.663,10.169,10.169,0,0,1,1.592-5.743,10.562,10.562,0,0,1,4.357-3.725,14.282,14.282,0,0,1,6.229-1.319,14.51,14.51,0,0,1,6.322,1.319,10.568,10.568,0,0,1,4.357,3.725,10.172,10.172,0,0,1,1.592,5.743A10.023,10.023,0,0,1,134.717,89.6ZM185.7,64.54h12.833V87.664a14.031,14.031,0,0,1-2.81,8.692,17.9,17.9,0,0,1-7.777,5.743,30.453,30.453,0,0,1-11.523,2.017q-9.929,0-16.02-4.384a14.059,14.059,0,0,1-6.089-12.065V64.543h12.833V86.5a7.4,7.4,0,0,0,2.529,6.092,12.162,12.162,0,0,0,13.536,0A7.454,7.454,0,0,0,185.7,86.5V64.54Zm58.07,1.747a26.256,26.256,0,0,0-11.523-2.523,23.12,23.12,0,0,0-10.96,2.523,19.822,19.822,0,0,0-3.33,2.205l-2.384-3.953H206.49v53.542h12.833V100.113a17.936,17.936,0,0,0,2.436,1.559,22,22,0,0,0,10.493,2.444,26.22,26.22,0,0,0,11.523-2.523,21.789,21.789,0,0,0,8.476-7.061,18.977,18.977,0,0,0,0-21.186A21.807,21.807,0,0,0,243.775,66.287ZM240.962,89.6a10.61,10.61,0,0,1-4.309,3.725,15.15,15.15,0,0,1-12.363,0,10.589,10.589,0,0,1-4.309-3.725,10.023,10.023,0,0,1-1.592-5.663,10.172,10.172,0,0,1,1.592-5.743,10.632,10.632,0,0,1,4.309-3.725,15.15,15.15,0,0,1,12.363,0,10.593,10.593,0,0,1,4.309,3.725,10.172,10.172,0,0,1,1.591,5.743A10,10,0,0,1,240.962,89.6ZM80.131,70.092a28.26,28.26,0,0,1,16.7-5.589V74.754c-8.234,0-12.357,2.984-14.422,5.8a10.779,10.779,0,0,0-2.071,6.423v16.362H67.509V64.54H78.121ZM315.4,39.886v9.778h-8.151a33.054,33.054,0,0,1-10.96-1.512,11.448,11.448,0,0,1-6.182-4.734,15.49,15.49,0,0,1-1.966-8.186V0h12.833V10.866H315.4v8.846H300.973V34.376a5.139,5.139,0,0,0,1.592,4.191q1.592,1.319,5.06,1.319Z" transform="translate(2 2)" stroke="#fff" stroke-linejoin="round" stroke-width="4"/>
</svg>
