<svg xmlns="http://www.w3.org/2000/svg" width="343.422" height="133.694" viewBox="0 0 343.422 133.694">
  <path id="Renault_Group_logo" d="M18.1,37.583H31.061L42.3,55.806H58.68L44.872,35.387a21.7,21.7,0,0,0,5.111-2.817,16.252,16.252,0,0,0,6.663-13.734q0-8.894-6.663-13.864T31.526,0H3.862V55.806H18.1ZM31.932,10.815q4.883,0,7.579,2.136a7.3,7.3,0,0,1,2.7,6.061,7.218,7.218,0,0,1-2.7,5.93q-2.7,2.182-7.579,2.181H18.1V10.815Zm79.844,30.344H97.944a6.608,6.608,0,0,1-1.881,2.835,9.51,9.51,0,0,1-3.456,1.964,16.3,16.3,0,0,1-5.136.7,17.147,17.147,0,0,1-6.816-1.309,10.216,10.216,0,0,1-4.778-4.1,11.29,11.29,0,0,1-1.444-3.924h37.547a27.121,27.121,0,0,0,.2-3.487,21.549,21.549,0,0,0-3.255-11.99,21.61,21.61,0,0,0-8.95-7.759,29.848,29.848,0,0,0-13.121-2.746,30.875,30.875,0,0,0-13.527,2.835,22.433,22.433,0,0,0-9.255,7.935,21.154,21.154,0,0,0-3.356,11.9,20.689,20.689,0,0,0,3.46,11.9,22.958,22.958,0,0,0,9.508,7.935,32.118,32.118,0,0,0,13.78,2.835,32.444,32.444,0,0,0,11.646-1.964,22.952,22.952,0,0,0,8.491-5.451A15.359,15.359,0,0,0,111.777,41.159ZM80.3,22.281A15.685,15.685,0,0,1,86.451,21.1a16.129,16.129,0,0,1,6,1.089,10.326,10.326,0,0,1,4.476,3.356A8.374,8.374,0,0,1,98.482,29.3H74.632a10.6,10.6,0,0,1,1.194-3.053A9.406,9.406,0,0,1,80.3,22.281Zm52.517,33.528H118.883V12.21h9.866l2.613,4.481a17.946,17.946,0,0,1,5.014-3.347,23.931,23.931,0,0,1,10.07-2.005,26.586,26.586,0,0,1,11.035,2.181,18.307,18.307,0,0,1,7.679,6.278,16.7,16.7,0,0,1,2.849,9.768V55.812H154.077V31.4a9.493,9.493,0,0,0-1.322-5.1,8.57,8.57,0,0,0-3.713-3.27,12.8,12.8,0,0,0-5.542-1.134,11.545,11.545,0,0,0-7.78,2.484,8.744,8.744,0,0,0-2.9,7.018V55.809Zm94.106-43.6h-9.866L214.44,16.7a21.1,21.1,0,0,0-3.637-2.526,24.349,24.349,0,0,0-11.951-2.835,27.465,27.465,0,0,0-12.409,2.835,23.87,23.87,0,0,0-9.2,7.935,20.492,20.492,0,0,0-3.508,11.9,20.491,20.491,0,0,0,3.508,11.9,23.87,23.87,0,0,0,9.2,7.935,27.465,27.465,0,0,0,12.409,2.835A24.317,24.317,0,0,0,210.8,53.851a21.11,21.11,0,0,0,3.637-2.526l2.616,4.49h9.866ZM207.6,44.56a15.94,15.94,0,0,1-13.423,0,11.335,11.335,0,0,1-6.406-10.55,11.345,11.345,0,0,1,6.406-10.639,15.941,15.941,0,0,1,13.423,0A11.346,11.346,0,0,1,214,34.01,11.337,11.337,0,0,1,207.6,44.56Zm61.678-32.35h13.932V38.2a16.141,16.141,0,0,1-3.05,9.768,19.506,19.506,0,0,1-8.443,6.453,32.079,32.079,0,0,1-12.51,2.267q-10.78,0-17.392-4.927A15.98,15.98,0,0,1,235.2,38.2V12.213h13.933V36.89q0,4.534,2.745,6.846a12.834,12.834,0,0,0,14.7,0q2.7-2.307,2.7-6.846V12.21ZM291.148,0H305.08V55.806H291.148ZM67.376,87.308c.035.842.052,1.672.052,2.484a24.336,24.336,0,0,1-4.372,14.561,28.023,28.023,0,0,1-11.847,9.375A41.844,41.844,0,0,1,34.274,117,41.817,41.817,0,0,1,20.7,114.861,33.26,33.26,0,0,1,9.814,108.8a28.531,28.531,0,0,1-7.221-9.155A25.368,25.368,0,0,1,0,88.224,25.751,25.751,0,0,1,2.544,76.8a27.738,27.738,0,0,1,7.121-9.113,33.861,33.861,0,0,1,10.782-6.06,40.571,40.571,0,0,1,13.527-2.181A41.582,41.582,0,0,1,49.89,62.239a29.728,29.728,0,0,1,10.882,7.325,20.183,20.183,0,0,1,5.136,9.765H51.06a10.168,10.168,0,0,0-2.9-4.1,17.239,17.239,0,0,0-5.694-3.314A24.058,24.058,0,0,0,34.077,70.6a22.621,22.621,0,0,0-10.119,2.181,16.771,16.771,0,0,0-6.916,6.105,18.709,18.709,0,0,0,.052,18.747,16.747,16.747,0,0,0,7.069,6.191,23.476,23.476,0,0,0,10.323,2.181,27.855,27.855,0,0,0,9.408-1.44,13.713,13.713,0,0,0,6.305-4.317,11.355,11.355,0,0,0,2.248-5.058H30.52V84.907H67.133A19.806,19.806,0,0,1,67.376,87.308ZM148.7,74.49a33.416,33.416,0,0,0-14.037-2.835,33.06,33.06,0,0,0-13.985,2.835,23.575,23.575,0,0,0-9.713,7.935,21.681,21.681,0,0,0,0,23.808,23.577,23.577,0,0,0,9.713,7.935,36.033,36.033,0,0,0,28.021,0,23.534,23.534,0,0,0,9.765-7.935,21.679,21.679,0,0,0,0-23.808A23.511,23.511,0,0,0,148.7,74.49Zm-2.439,26.2a11.567,11.567,0,0,1-4.73,4.186,15.312,15.312,0,0,1-6.864,1.482,15.063,15.063,0,0,1-6.763-1.482,11.266,11.266,0,0,1-6.458-10.55,11.727,11.727,0,0,1,1.728-6.453,11.587,11.587,0,0,1,4.73-4.186,15.063,15.063,0,0,1,6.763-1.482,15.3,15.3,0,0,1,6.864,1.482,11.593,11.593,0,0,1,4.73,4.186,11.73,11.73,0,0,1,1.728,6.453A11.557,11.557,0,0,1,146.259,100.693Zm55.356-28.166h13.932V98.512a16.141,16.141,0,0,1-3.05,9.768,19.506,19.506,0,0,1-8.443,6.453A32.067,32.067,0,0,1,191.545,117q-10.78,0-17.392-4.927a15.98,15.98,0,0,1-6.611-13.558V72.53h13.932V97.206q0,4.534,2.745,6.846a12.833,12.833,0,0,0,14.7,0q2.7-2.312,2.7-6.846V72.527ZM264.66,74.49a27.7,27.7,0,0,0-12.51-2.835,24.407,24.407,0,0,0-11.9,2.835,21.476,21.476,0,0,0-3.616,2.478l-2.589-4.442h-9.866v60.168h13.932V112.5a19.4,19.4,0,0,0,2.644,1.752A23.223,23.223,0,0,0,252.15,117a27.661,27.661,0,0,0,12.51-2.835,23.87,23.87,0,0,0,9.2-7.935,21.948,21.948,0,0,0,0-23.808A23.889,23.889,0,0,0,264.66,74.49Zm-3.054,26.2a11.644,11.644,0,0,1-4.678,4.186,15.94,15.94,0,0,1-13.423,0,11.833,11.833,0,0,1,0-21.189,15.94,15.94,0,0,1,13.423,0,12.208,12.208,0,0,1,4.678,17ZM87,78.766a30.014,30.014,0,0,1,18.135-6.281V84c-8.939,0-13.415,3.353-15.657,6.516a12.4,12.4,0,0,0-2.249,7.218v18.387H73.293v-43.6H84.814ZM342.419,44.822V55.809H333.57a34.761,34.761,0,0,1-11.9-1.7,12.5,12.5,0,0,1-6.711-5.32,17.894,17.894,0,0,1-2.134-9.2V0h13.933V12.21h15.664v9.94H326.758V38.63q0,3.227,1.728,4.71t5.493,1.482Z" transform="translate(0.5 0.5)" fill="#000591" stroke="#e7e7e7" stroke-width="1"/>
</svg>
