<?xml version="1.0" encoding="UTF-8" standalone="no"?>
<svg xmlns="http://www.w3.org/2000/svg" width="95.77" height="113.244" viewBox="0 0 95.77 113.244">
  <g id="PDF_file_icon" transform="translate(53.548 -183.974)">
    <path id="Path_83915" data-name="Path 83915" d="M-41.387,183.975a11.954,11.954,0,0,0-12.161,11.7v89.845a11.954,11.954,0,0,0,12.161,11.7H30.046a11.953,11.953,0,0,0,12.161-11.7V211.641a9.348,9.348,0,0,0-.785-4.268,11.858,11.858,0,0,0-2.407-3.347L39,204.011,21.281,187.292l-.029-.028a14.07,14.07,0,0,0-3.756-2.311,14.22,14.22,0,0,0-5.363-.975l.041,0Z" transform="translate(0 0)" fill="#030061"/>
    <path id="Path_83916" data-name="Path 83916" d="M-42.117,187.117H12.292a11.974,11.974,0,0,1,3.764.678,10.358,10.358,0,0,1,2.623,1.6l.007.007L36.632,206.38a9.566,9.566,0,0,1,1.605,2.234,8.2,8.2,0,0,1,.449,2.587q0,.041,0,.083v75.285a8.084,8.084,0,0,1-8.288,8H-42.117a8.084,8.084,0,0,1-8.288-8V195.114a8.084,8.084,0,0,1,8.288-8Z" transform="translate(0 0)" fill="#f5f5f5"/>
    <path id="Path_83917" data-name="Path 83917" d="M-34.166,239.11c-3.753-2.162.307-5.133,11.326-8.288l6.933-1.985,2.7-3.4c1.486-1.873,3.7-4.928,4.927-6.79l2.226-3.385-1.534-2.505c-1.886-3.081-2.559-7.71-1.362-9.375,1.621-2.255,6.931-2.023,9.033.394,1.642,1.888,1.474,5.306-.472,9.617l-1.6,3.535L-.578,218.3a60.281,60.281,0,0,0,5.017,3.989l3.734,2.676,4.646-.349c14.759-1.11,19.814.776,19.814,3.48,0,3.413-11.589,3.694-21.321-.244a31.315,31.315,0,0,1-3.693-1.766s-6.1.715-9.1,1.181c-3.1.481-4.644.783-9.183,1.665,0,0-1.592,1.332-2.63,2.3-3.861,3.6-8.368,6.59-11.588,7.677-3.6,1.217-7.383,1.3-9.286.2Zm5.889-1.212c2.109-.751,6.379-3.661,9.335-6.361l1.2-1.093-5.449,1.578c-8.415,2.438-12.265,4.735-10.263,6.125,1.125.781,2.47.716,5.181-.249Zm54.662-8.84c2.063-.833,1.764-2.511-.569-3.187-1.815-.526-3.279-.635-7.994-.595-2.9.114-7.558.45-8.348.553,0,0,2.56,1.019,3.7,1.394a72.634,72.634,0,0,0,7.874,1.9c2.648.467,4.18.418,5.34-.061ZM4.407,223.795a41.715,41.715,0,0,1-4.718-3.508,22.9,22.9,0,0,1-2.644-2.269A40.792,40.792,0,0,1-5.3,221.838l-3.294,4.692-.955,1.064s5.078-.959,7.661-1.348C.85,225.834,6.4,225.2,6.4,225.2Zm-7.083-16.365c.318-1.54.454-3.078-.405-3.853-2.382-1.5-5.257-.249-4.77,3.318a15.341,15.341,0,0,0,1.373,4.515l1.258,2.3.885-1.731a29.671,29.671,0,0,0,1.659-4.547Z" transform="translate(-4.991 16.71)" fill="#030061"/>
  </g>
</svg>



